<?xml version="1.0" encoding="UTF-8"?>
<svg xmlns="http://www.w3.org/2000/svg" xmlns:xlink="http://www.w3.org/1999/xlink" width="85.0394pt" height="85.0394pt" viewBox="0 0 85.0394 85.0394" version="1.1">
<defs>
<clipPath id="clip1">
  <path d="M 0 6 L 79 6 L 79 85.039063 L 0 85.039063 Z M 0 6 "/>
</clipPath>
<clipPath id="clip2">
  <path d="M 6 0 L 85.039063 0 L 85.039063 79 L 6 79 Z M 6 0 "/>
</clipPath>
</defs>
<g id="surface1">
<g clip-path="url(#clip1)" clip-rule="nonzero">
<path style=" stroke:none;fill-rule:nonzero;fill:rgb(6.47583%,5.92804%,5.235291%);fill-opacity:1;" d="M 0.148438 85.039063 L 78.472656 85.039063 L 78.472656 6.714844 L 0.148438 6.714844 Z M 1.085938 7.652344 L 77.535156 7.652344 L 77.535156 84.101563 L 1.085938 84.101563 Z M 1.085938 7.652344 "/>
</g>
<g clip-path="url(#clip2)" clip-rule="nonzero">
<path style=" stroke:none;fill-rule:nonzero;fill:rgb(6.47583%,5.92804%,5.235291%);fill-opacity:1;" d="M 6.714844 78.472656 L 85.039063 78.472656 L 85.039063 0.148438 L 6.714844 0.148438 Z M 7.652344 1.085938 L 84.101563 1.085938 L 84.101563 77.535156 L 7.652344 77.535156 Z M 7.652344 1.085938 "/>
</g>
<path style=" stroke:none;fill-rule:nonzero;fill:rgb(6.47583%,5.92804%,5.235291%);fill-opacity:1;" d="M 10.75 28.652344 L 10.75 23.953125 L 12.4375 23.953125 L 12.4375 28.59375 C 12.4375 29.683594 13.070313 30.433594 14.277344 30.433594 C 15.484375 30.433594 16.105469 29.683594 16.105469 28.59375 L 16.105469 23.953125 L 17.804688 23.953125 L 17.804688 28.640625 C 17.804688 30.585938 16.65625 31.910156 14.277344 31.910156 C 11.898438 31.910156 10.75 30.574219 10.75 28.652344 "/>
<path style=" stroke:none;fill-rule:nonzero;fill:rgb(6.47583%,5.92804%,5.235291%);fill-opacity:1;" d="M 23.925781 26.472656 C 23.925781 25.816406 23.433594 25.417969 22.777344 25.417969 L 21.007813 25.417969 L 21.007813 27.527344 L 22.777344 27.527344 C 23.433594 27.527344 23.925781 27.117188 23.925781 26.472656 M 19.34375 31.769531 L 19.34375 23.953125 L 23 23.953125 C 24.699219 23.953125 25.628906 25.101563 25.628906 26.472656 C 25.628906 27.832031 24.6875 28.992188 23 28.992188 L 21.007813 28.992188 L 21.007813 31.769531 Z M 19.34375 31.769531 "/>
<path style=" stroke:none;fill-rule:nonzero;fill:rgb(6.47583%,5.92804%,5.235291%);fill-opacity:1;" d="M 26.285156 27.867188 C 26.285156 25.464844 28.101563 23.824219 30.445313 23.824219 C 32.167969 23.824219 33.164063 24.761719 33.714844 25.734375 L 32.285156 26.4375 C 31.957031 25.804688 31.253906 25.300781 30.445313 25.300781 C 29.027344 25.300781 27.996094 26.390625 27.996094 27.867188 C 27.996094 29.34375 29.027344 30.433594 30.445313 30.433594 C 31.253906 30.433594 31.957031 29.941406 32.285156 29.296875 L 33.714844 29.988281 C 33.15625 30.960938 32.167969 31.910156 30.445313 31.910156 C 28.101563 31.910156 26.285156 30.269531 26.285156 27.867188 "/>
<path style=" stroke:none;fill-rule:nonzero;fill:rgb(6.47583%,5.92804%,5.235291%);fill-opacity:1;" d="M 36.625 31.769531 L 36.625 28.570313 L 33.613281 23.953125 L 35.511719 23.953125 L 37.460938 27.09375 L 39.378906 23.953125 L 41.28125 23.953125 L 38.289063 28.570313 L 38.289063 31.769531 Z M 36.625 31.769531 "/>
<path style=" stroke:none;fill-rule:nonzero;fill:rgb(6.47583%,5.92804%,5.235291%);fill-opacity:1;" d="M 41.164063 27.867188 C 41.164063 25.464844 42.980469 23.824219 45.324219 23.824219 C 47.050781 23.824219 48.046875 24.761719 48.597656 25.734375 L 47.167969 26.4375 C 46.835938 25.804688 46.132813 25.300781 45.324219 25.300781 C 43.90625 25.300781 42.875 26.390625 42.875 27.867188 C 42.875 29.34375 43.90625 30.433594 45.324219 30.433594 C 46.132813 30.433594 46.835938 29.941406 47.167969 29.296875 L 48.597656 29.988281 C 48.03125 30.960938 47.050781 31.910156 45.324219 31.910156 C 42.980469 31.910156 41.164063 30.269531 41.164063 27.867188 "/>
<path style=" stroke:none;fill-rule:nonzero;fill:rgb(6.47583%,5.92804%,5.235291%);fill-opacity:1;" d="M 49.59375 31.769531 L 49.59375 23.953125 L 51.257813 23.953125 L 51.257813 30.304688 L 54.566406 30.304688 L 54.566406 31.769531 Z M 49.59375 31.769531 "/>
<path style=" stroke:none;fill-rule:nonzero;fill:rgb(6.47583%,5.92804%,5.235291%);fill-opacity:1;" d="M 55.726563 23.953125 L 57.390625 23.953125 L 57.390625 31.769531 L 55.726563 31.769531 Z M 55.726563 23.953125 "/>
<path style=" stroke:none;fill-rule:nonzero;fill:rgb(6.47583%,5.92804%,5.235291%);fill-opacity:1;" d="M 64.332031 31.769531 L 60.601563 26.671875 L 60.601563 31.769531 L 58.9375 31.769531 L 58.9375 23.953125 L 60.648438 23.953125 L 64.273438 28.863281 L 64.273438 23.953125 L 65.9375 23.953125 L 65.9375 31.769531 Z M 64.332031 31.769531 "/>
<path style=" stroke:none;fill-rule:nonzero;fill:rgb(6.47583%,5.92804%,5.235291%);fill-opacity:1;" d="M 67.109375 27.867188 C 67.109375 25.394531 68.984375 23.824219 71.273438 23.824219 C 72.902344 23.824219 73.921875 24.644531 74.507813 25.570313 L 73.125 26.320313 C 72.773438 25.769531 72.105469 25.300781 71.273438 25.300781 C 69.851563 25.300781 68.824219 26.390625 68.824219 27.867188 C 68.824219 29.34375 69.851563 30.433594 71.273438 30.433594 C 71.964844 30.433594 72.621094 30.128906 72.9375 29.835938 L 72.9375 28.898438 L 70.875 28.898438 L 70.875 27.445313 L 74.601563 27.445313 L 74.601563 30.445313 C 73.804688 31.335938 72.691406 31.921875 71.273438 31.921875 C 68.984375 31.921875 67.109375 30.328125 67.109375 27.867188 "/>
<path style=" stroke:none;fill-rule:nonzero;fill:rgb(6.47583%,5.92804%,5.235291%);fill-opacity:1;" d="M 56.691406 41.691406 C 56.691406 41.199219 56.339844 40.777344 55.683594 40.777344 L 53.539063 40.777344 L 53.539063 42.597656 L 55.683594 42.597656 C 56.316406 42.597656 56.691406 42.257813 56.691406 41.691406 M 56.539063 38.503906 C 56.539063 38.011719 56.1875 37.648438 55.625 37.648438 L 53.539063 37.648438 L 53.539063 39.347656 L 55.625 39.347656 C 56.1875 39.347656 56.539063 38.996094 56.539063 38.503906 M 51.875 44.039063 L 51.875 36.21875 L 55.988281 36.21875 C 57.476563 36.21875 58.238281 37.167969 58.238281 38.210938 C 58.238281 39.195313 57.628906 39.851563 56.890625 40.007813 C 57.722656 40.132813 58.390625 40.941406 58.390625 41.929688 C 58.390625 43.101563 57.605469 44.039063 56.117188 44.039063 Z M 51.875 44.039063 "/>
<path style=" stroke:none;fill-rule:nonzero;fill:rgb(6.47583%,5.92804%,5.235291%);fill-opacity:1;" d="M 59.273438 40.132813 C 59.273438 37.730469 61.089844 36.089844 63.433594 36.089844 C 65.160156 36.089844 66.15625 37.027344 66.707031 38 L 65.273438 38.703125 C 64.945313 38.070313 64.242188 37.566406 63.433594 37.566406 C 62.015625 37.566406 60.984375 38.65625 60.984375 40.132813 C 60.984375 41.613281 62.015625 42.699219 63.433594 42.699219 C 64.242188 42.699219 64.945313 42.207031 65.273438 41.566406 L 66.707031 42.253906 C 66.140625 43.230469 65.160156 44.179688 63.433594 44.179688 C 61.089844 44.179688 59.273438 42.535156 59.273438 40.132813 "/>
<path style=" stroke:none;fill-rule:nonzero;fill:rgb(6.47583%,5.92804%,5.235291%);fill-opacity:1;" d="M 73.09375 44.039063 L 69.367188 38.9375 L 69.367188 44.039063 L 67.703125 44.039063 L 67.703125 36.21875 L 69.414063 36.21875 L 73.035156 41.132813 L 73.035156 36.21875 L 74.699219 36.21875 L 74.699219 44.039063 Z M 73.09375 44.039063 "/>
</g>
</svg>
